<svg width="1280" height="320" viewBox="0 0 1280 320" xmlns="http://www.w3.org/2000/svg">

  <defs>

    <linearGradient id="bg" x1="0" y1="0" x2="1280" y2="320">
      <stop offset="0%" stop-color="#0D1117"/>
      <stop offset="100%" stop-color="#111827"/>
    </linearGradient>

    <linearGradient id="accent" x1="0" y1="0" x2="1280" y2="0">
      <stop offset="0%" stop-color="#7C3AED"/>
      <stop offset="50%" stop-color="#4F46E5"/>
      <stop offset="100%" stop-color="#2563EB"/>
    </linearGradient>

    <filter id="glow">
      <feGaussianBlur stdDeviation="5"/>
    </filter>

  </defs>

  <rect width="1280" height="320" rx="18" fill="url(#bg)"/>

  <!-- top -->
  <rect width="1280" height="3" fill="url(#accent)"/>

  <!-- bottom -->
  <rect y="317" width="1280" height="3" fill="url(#accent)"/>

  <!-- blueprint grid -->

  <g opacity=".06">

    <path d="M760 40H1220"/>
    <path d="M760 90H1220"/>
    <path d="M760 140H1220"/>
    <path d="M760 190H1220"/>
    <path d="M760 240H1220"/>

    <path d="M820 30V270"/>
    <path d="M900 30V270"/>
    <path d="M980 30V270"/>
    <path d="M1060 30V270"/>
    <path d="M1140 30V270"/>

  </g>

  <!-- architecture -->

  <g stroke="url(#accent)" stroke-width="2" fill="none">

    <circle cx="980" cy="60" r="10"/>
    <circle cx="980" cy="115" r="10"/>
    <circle cx="980" cy="170" r="10"/>
    <circle cx="980" cy="225" r="10"/>

    <line x1="980" y1="70" x2="980" y2="105"/>
    <line x1="980" y1="125" x2="980" y2="160"/>
    <line x1="980" y1="180" x2="980" y2="215"/>

  </g>

  <text x="1010" y="65"
        fill="#C9D1D9"
        font-size="15"
        font-family="Segoe UI">
        PLAN
  </text>

  <text x="1010" y="120"
        fill="#C9D1D9"
        font-size="15"
        font-family="Segoe UI">
        AUTOMATION
  </text>

  <text x="1010" y="175"
        fill="#C9D1D9"
        font-size="15"
        font-family="Segoe UI">
        INFRASTRUCTURE
  </text>

  <text x="1010" y="230"
        fill="#C9D1D9"
        font-size="15"
        font-family="Segoe UI">
        SECURITY
  </text>

  <!-- title -->

  <text
      x="80"
      y="105"
      fill="#FFFFFF"
      font-size="46"
      font-weight="700"
      font-family="Segoe UI">
      MAURO MARZOCCA
  </text>

  <text
      x="82"
      y="145"
      fill="#A78BFA"
      font-size="22"
      font-family="Segoe UI">
      Cloud &amp; Security Engineer
  </text>

  <text
      x="82"
      y="180"
      fill="#8B949E"
      font-size="18"
      font-family="Segoe UI">
      DevOps • Infrastructure • Linux • Automation
  </text>

  <text
      x="82"
      y="235"
      fill="#C9D1D9"
      font-size="17"
      font-family="Segoe UI">
      Building secure infrastructure through
  </text>

  <text
      x="82"
      y="262"
      fill="#C9D1D9"
      font-size="17"
      font-family="Segoe UI">
      automation and modern engineering.
  </text>

  <rect
      x="80"
      y="287"
      width="250"
      height="4"
      rx="2"
      fill="url(#accent)"
      filter="url(#glow)"/>

</svg>